<?xml version="1.0" encoding="UTF-8" standalone="no"?>
<!-- Created with Inkscape (http://www.inkscape.org/) -->

<svg
   width="532.45978"
   height="698.98315"
   viewBox="0 0 140.87998 184.9393"
   version="1.1"
   id="svg1"
   xml:space="preserve"
   inkscape:version="1.4.3 (0d15f75, 2025-12-25)"
   sodipodi:docname="beago-cirius-logo-black.svg"
   xmlns:inkscape="http://www.inkscape.org/namespaces/inkscape"
   xmlns:sodipodi="http://sodipodi.sourceforge.net/DTD/sodipodi-0.dtd"
   xmlns="http://www.w3.org/2000/svg"
   xmlns:svg="http://www.w3.org/2000/svg"><sodipodi:namedview
     id="namedview1"
     pagecolor="#ffffff"
     bordercolor="#000000"
     borderopacity="0.25"
     inkscape:showpageshadow="2"
     inkscape:pageopacity="0.0"
     inkscape:pagecheckerboard="0"
     inkscape:deskcolor="#d1d1d1"
     inkscape:document-units="mm"
     inkscape:zoom="0.50381034"
     inkscape:cx="259.02605"
     inkscape:cy="430.71764"
     inkscape:window-width="1680"
     inkscape:window-height="991"
     inkscape:window-x="0"
     inkscape:window-y="31"
     inkscape:window-maximized="1"
     inkscape:current-layer="layer1"><inkscape:page
       x="0"
       y="0"
       width="140.87997"
       height="184.9393"
       id="page2"
       margin="0"
       bleed="0" /></sodipodi:namedview><defs
     id="defs1" /><g
     inkscape:label="Layer 1"
     inkscape:groupmode="layer"
     id="layer1"
     transform="translate(-35.762407,-9.496782)"><path
       style="fill:#ffffff;stroke-width:1.31325"
       d="m 35.887668,194.07632 c 0.0034,-0.6487 1.815661,-6.98226 2.594956,-9.06893 2.677597,-7.16963 6.179303,-13.41313 10.775464,-19.21253 2.291503,-2.89141 8.290876,-8.85965 11.737312,-11.67643 4.557435,-3.72479 11.930783,-8.83306 19.620013,-13.59279 2.272637,-1.40678 5.480155,-3.39357 7.127817,-4.41508 7.812928,-4.84383 16.9434,-11.37023 22.20987,-15.87544 10.0593,-8.60525 18.85261,-19.6061 24.08542,-30.131964 1.35964,-2.734937 3.08535,-6.635348 3.08044,-6.962331 -10e-4,-0.09102 -0.23753,0.245698 -0.5248,0.748258 -0.8353,1.461301 -3.32501,5.104376 -4.9992,7.315086 -10.60131,13.998681 -24.11642,24.434061 -47.673893,36.810301 -5.046616,2.65131 -11.559879,6.14641 -14.148651,7.59235 -13.157763,7.34919 -23.610687,16.13001 -29.329946,24.63819 -1.749666,2.60286 -3.420119,5.43565 -4.064388,6.89246 -0.273712,0.61891 -0.53871,1.08424 -0.588884,1.03406 -0.172449,-0.17244 0.523521,-4.82979 1.061002,-7.1001 2.893005,-12.21999 10.157464,-21.97931 22.359324,-30.03822 5.550606,-3.66599 11.164502,-6.75542 22.335605,-12.29168 9.161404,-4.54026 13.300332,-6.73224 17.974502,-9.51926 12.012589,-7.16263 20.318239,-13.874839 28.511889,-23.041867 2.97069,-3.323604 7.57357,-9.375523 9.66589,-12.708822 3.99505,-6.364574 6.65112,-11.756117 9.05845,-18.387703 l 0.89998,-2.479242 -0.0972,1.446225 c -0.0534,0.795422 -0.1517,2.887282 -0.21838,4.648576 -0.27858,7.359281 -1.07942,12.744235 -3.10333,20.866945 -1.90139,7.631032 -3.64892,12.650225 -6.33654,18.199618 -5.13789,10.60866 -10.56206,18.28343 -18.53307,26.2228 -7.07227,7.0442 -15.16476,13.14374 -28.628386,21.5781 -2.499902,1.56607 -6.428536,4.06308 -8.730299,5.54891 l -4.185024,2.7015 0.05295,15.40346 0.05295,15.40344 h 23.759399 c 21.65939,0 23.92621,-0.0317 25.64684,-0.35746 6.5431,-1.23919 12.41338,-4.61091 15.85831,-9.10857 3.42698,-4.47424 4.92688,-9.03496 4.93852,-15.01647 0.005,-2.93991 -0.0469,-3.40432 -0.64242,-5.6668 -1.82214,-6.92296 -6.36005,-12.39876 -13.01789,-15.70839 -2.64962,-1.31713 -3.20912,-1.52612 -5.89207,-2.20097 -3.08421,-0.77577 -6.09053,-1.05024 -10.62155,-0.9697 -1.96029,0.0348 -3.56405,7.7e-4 -3.5639,-0.0758 1.4e-4,-0.0766 0.86024,-0.81431 1.91134,-1.63957 1.05111,-0.82527 3.44511,-3.0034 5.32004,-4.8403 3.30887,-3.24176 3.45142,-3.35314 4.85518,-3.79328 2.12922,-0.66759 5.49584,-2.38863 7.30089,-3.73226 1.87155,-1.39311 4.10822,-3.71752 5.1946,-5.39837 2.41068,-3.72979 3.81326,-8.92239 3.69806,-13.69091 l -0.0506,-2.09541 1.25775,-3.202347 c 2.4708,-6.290854 3.55709,-9.627239 3.57645,-10.984405 l 0.007,-0.482085 0.42996,0.516508 c 0.72321,0.86881 2.15699,3.919662 2.82746,6.016372 2.87137,8.979547 2.20059,18.442767 -1.85791,26.210727 -2.09529,4.01039 -4.06721,6.41041 -7.79641,9.489 -1.14816,0.94785 -2.08758,1.78412 -2.08758,1.85836 0,0.0742 0.84601,0.63584 1.88004,1.24799 7.06922,4.18509 11.81524,9.48634 14.83767,16.57356 3.05588,7.16565 3.19188,17.89259 0.31637,24.95377 -3.93937,9.67361 -11.43742,16.58745 -21.62456,19.93969 -3.15962,1.03973 -5.261,1.46841 -8.63214,1.76098 -1.48634,0.12896 -18.75604,0.20686 -46.124206,0.20797 -41.528677,0.001 -43.748176,-0.0165 -43.746379,-0.35979 z m 32.069916,-21.07354 c 0.03026,-6.44862 0.0032,-11.79516 -0.06012,-11.88121 -0.156788,-0.21305 -5.278558,4.53033 -7.335929,6.79397 -3.903769,4.29516 -7.196393,9.00257 -9.572917,13.68622 -0.80686,1.59016 -1.467019,2.94397 -1.467019,3.00848 0,0.0645 4.135717,0.11727 9.190482,0.11727 h 9.190481 z m 0.0799,-54.33723 c -0.07049,-0.51436 -0.128187,-11.89876 -0.128187,-25.298651 V 69.003458 l 25.567172,0.08598 c 27.737871,0.09328 26.986901,0.06267 31.823181,1.297109 2.7618,0.704946 6.6567,2.109384 6.6567,2.400308 0,0.08612 -0.60431,0.949467 -1.34292,1.918537 -2.88018,3.778862 -3.93776,5.189881 -4.24317,5.661194 l -0.31769,0.490293 -1.49345,-0.538719 c -2.53032,-0.912735 -5.20027,-1.345564 -8.71783,-1.413257 -1.7613,-0.0339 -11.03521,-0.03839 -20.608692,-0.01 l -17.406337,0.05165 v 17.82589 17.825887 l -1.497875,0.75905 c -0.823831,0.41747 -2.997464,1.543 -4.830298,2.50119 l -3.332423,1.74216 z M 151.90777,58.471722 c -1.28073,-4.608996 -3.49218,-12.019755 -3.84698,-12.891602 -0.76841,-1.888202 -0.74728,-1.880609 -2.49183,-0.895578 -0.83947,0.473987 -2.64773,1.539653 -4.01837,2.368148 -3.22033,1.946551 -3.35928,1.99829 -2.68048,0.998002 0.29304,-0.431802 1.2408,-2.187014 2.10616,-3.90047 0.86536,-1.713457 1.74661,-3.362157 1.95833,-3.663778 0.21172,-0.301621 0.38494,-0.590841 0.38494,-0.64271 0,-0.43799 -6.719,-2.791411 -12.86105,-4.50476 -1.33517,-0.372451 -2.4276,-0.738063 -2.4276,-0.81247 0,-0.07441 2.75437,-0.946084 6.12081,-1.937059 5.25376,-1.546541 7.5188,-2.374046 8.70217,-3.179211 0.19106,-0.129998 -0.17618,-0.997919 -1.42416,-3.365825 -0.92487,-1.754864 -1.99902,-3.688918 -2.387,-4.297896 -0.38796,-0.608979 -0.67377,-1.138844 -0.63514,-1.177479 0.0386,-0.03863 2.01302,0.993062 4.38752,2.292658 2.37451,1.299596 4.34071,2.339471 4.36935,2.310832 0.0286,-0.02864 0.33525,-0.650852 0.68135,-1.382695 0.83473,-1.765039 2.28865,-6.331263 4.03623,-12.676348 l 0.44528,-1.6166995 1.08999,3.8893365 c 1.33399,4.760041 3.01822,9.998144 3.54973,11.039988 l 0.39479,0.773855 2.12107,-1.150481 c 1.16659,-0.632765 3.18285,-1.741736 4.4806,-2.464379 1.29772,-0.722644 2.387,-1.313898 2.42059,-1.313898 0.0336,0 -0.20536,0.395129 -0.53101,0.878064 -0.90218,1.337907 -4.35242,7.650326 -4.35242,7.963004 0,0.469295 2.59026,1.486329 7.54103,2.960898 6.8609,2.043493 7.89177,2.388725 7.54102,2.52547 -0.17044,0.06645 -2.9131,0.881338 -6.0948,1.810851 -4.91967,1.437255 -9.19385,2.996345 -9.19385,3.353641 0,0.110826 2.695,5.196377 4.04061,7.62477 0.48798,0.880646 0.84116,1.601176 0.78483,1.601176 -0.0563,0 -0.49105,-0.264229 -0.96605,-0.587176 -0.47499,-0.322946 -2.11875,-1.311401 -3.65279,-2.196565 -1.53402,-0.885165 -3.08691,-1.787957 -3.45087,-2.006205 l -0.66173,-0.396816 -0.44776,0.877662 c -0.65554,1.284972 -2.07069,5.712658 -3.26176,10.205274 -1.42777,5.385397 -1.32737,5.182053 -1.77075,3.586471 z m 1.10358,-15.723777 c 1.38523,-4.500125 2.50675,-5.648697 7.04307,-7.212959 1.19313,-0.411429 2.16542,-0.829817 2.16064,-0.929751 -0.008,-0.165066 -1.3011,-0.76379 -3.90796,-1.809312 -1.41819,-0.568788 -3.00473,-1.843738 -3.8393,-3.085257 -0.45273,-0.673509 -1.0008,-1.97495 -1.43474,-3.40693 -0.38619,-1.274413 -0.76865,-2.246611 -0.8499,-2.16044 -0.0813,0.08618 -0.35262,0.85396 -0.60303,1.7062 -1.34872,4.590213 -2.68152,6.030031 -7.03737,7.602486 -1.16545,0.420723 -2.15492,0.873051 -2.19882,1.005173 -0.0485,0.145834 0.71606,0.497837 1.94577,0.89587 2.44532,0.791509 3.90466,1.591597 4.88768,2.679677 0.94101,1.041584 1.36394,1.897197 2.19888,4.448368 0.71734,2.191814 0.82239,2.449646 0.9472,2.324829 0.0432,-0.04323 0.35278,-0.969309 0.68788,-2.057954 z"
       id="path1" /></g></svg>
